<?xml version="1.0" standalone="no"?>
<!DOCTYPE svg PUBLIC "-//W3C//DTD SVG 20010904//EN"
 "http://www.w3.org/TR/2001/REC-SVG-20010904/DTD/svg10.dtd">
<svg version="1.0" xmlns="http://www.w3.org/2000/svg"
 width="512.000000pt" height="512.000000pt" viewBox="0 0 512.000000 512.000000"
 preserveAspectRatio="xMidYMid meet">
<metadata>
Created by potrace 1.16, written by Peter Selinger 2001-2019
</metadata>
<g transform="translate(0.000000,512.000000) scale(0.100000,-0.100000)"
fill="#000000" stroke="none">
<path d="M3184 4151 c-57 -26 -111 -76 -124 -115 -6 -20 -28 -45 -55 -65 -68
-49 -202 -189 -251 -263 -25 -37 -65 -110 -90 -163 -44 -93 -47 -96 -77 -93
-28 3 -33 10 -59 72 -58 143 -216 344 -350 446 -25 19 -56 55 -69 80 -61 115
-229 139 -229 33 0 -41 31 -75 93 -103 47 -22 79 -25 108 -10 28 16 65 -7 169
-107 109 -103 167 -181 219 -295 58 -126 59 -121 -13 -166 -77 -48 -101 -91
-94 -166 3 -28 3 -57 1 -64 -3 -8 -60 41 -147 125 -332 325 -761 606 -1092
715 -223 74 -420 88 -549 38 -114 -44 -202 -154 -226 -285 -18 -96 1 -172 73
-302 160 -287 223 -473 258 -762 6 -51 17 -96 30 -116 11 -18 69 -70 129 -114
93 -70 117 -83 177 -96 38 -9 81 -21 97 -27 33 -13 33 -12 -30 -146 -93 -197
-243 -537 -243 -549 0 -6 14 -15 32 -18 18 -4 51 -16 75 -26 32 -14 41 -22 36
-35 -4 -10 0 -20 10 -26 40 -22 21 -65 -109 -246 -124 -173 -133 -191 -86
-192 7 0 12 -13 12 -29 0 -21 -25 -61 -90 -147 -50 -64 -90 -123 -90 -131 0
-22 36 -51 77 -62 25 -7 298 -11 814 -11 l776 0 23 -25 23 -25 207 0 207 0 23
25 23 25 801 2 c756 3 803 4 838 21 21 11 40 28 43 38 7 22 4 28 -79 133 -30
38 -57 83 -60 102 -9 45 2 84 26 93 19 7 17 11 -24 62 -198 243 -313 387 -338
424 l-29 42 52 7 c29 3 82 6 119 6 60 0 67 2 61 18 -3 9 -66 140 -139 291 -74
150 -132 277 -129 280 12 20 160 125 228 161 87 47 103 65 113 130 9 60 10 61
82 115 82 59 98 95 107 238 13 209 68 371 194 571 102 161 106 171 106 257 0
65 -5 85 -33 141 -59 120 -190 216 -325 238 -174 28 -516 -79 -809 -252 -38
-22 -68 -42 -68 -44 0 -2 66 30 148 70 266 133 475 191 662 184 114 -5 176
-25 217 -70 25 -27 50 -126 39 -155 -6 -15 -10 -12 -23 15 -31 64 -100 129
-161 153 -50 18 -71 20 -162 16 -104 -5 -263 -40 -332 -72 -18 -8 -25 -13 -15
-10 157 44 382 60 449 32 72 -30 111 -123 111 -267 1 -107 -20 -179 -84 -291
-27 -47 -60 -111 -74 -143 -36 -82 -131 -401 -161 -541 -14 -66 -32 -131 -40
-143 -16 -25 -30 -32 -189 -94 -118 -46 -75 -41 77 9 141 46 152 57 167 164
15 107 43 230 88 389 45 157 58 187 131 302 32 51 69 120 81 152 28 77 37 192
22 295 -7 46 -10 85 -7 88 13 13 60 -33 82 -80 43 -93 27 -184 -63 -361 -57
-114 -93 -205 -93 -237 0 -18 62 96 171 310 76 151 108 309 79 387 -17 44 -5
38 28 -13 38 -59 66 -162 56 -206 -9 -43 -33 -88 -114 -218 -117 -188 -177
-366 -186 -559 -7 -146 -22 -181 -96 -235 -70 -51 -82 -66 -97 -121 -16 -58
-52 -89 -140 -121 -152 -56 -459 -215 -621 -323 -47 -31 -139 -88 -205 -127
-66 -38 -146 -87 -178 -107 -32 -21 -61 -36 -63 -34 -10 10 114 132 225 222
109 88 144 121 109 100 -97 -58 -293 -228 -387 -337 -43 -51 -103 -114 -132
-142 -46 -44 -49 -46 -28 -15 13 19 38 55 56 79 54 70 58 90 8 36 -26 -27 -45
-43 -42 -35 29 82 119 267 153 315 57 81 213 232 297 289 131 89 309 161 517
211 143 35 163 45 194 98 20 33 131 326 161 422 14 46 -70 -125 -112 -228 -93
-230 -91 -228 -268 -258 -255 -44 -488 -153 -634 -299 -71 -72 -259 -305 -283
-351 -10 -19 -23 -47 -29 -64 l-11 -30 -13 31 c-12 28 -9 42 37 179 42 127 51
165 56 248 l5 99 56 44 c108 86 323 225 432 279 176 89 244 168 205 243 -9 17
-28 39 -41 49 -71 50 -68 46 -52 84 18 43 76 95 135 120 34 15 78 21 181 25
82 3 153 11 178 20 49 18 93 65 93 100 0 37 16 62 82 130 49 50 59 66 56 90
-11 96 -226 108 -395 23 -107 -54 -202 -174 -203 -256 0 -27 -4 -34 -27 -39
-173 -38 -418 -155 -533 -254 -29 -25 -14 -18 55 26 112 71 337 173 436 199
57 15 61 15 85 -4 l25 -20 -53 -27 c-77 -38 -114 -69 -143 -118 l-26 -44 -77
5 c-90 6 -173 -12 -266 -59 -71 -35 -216 -137 -216 -151 0 -5 12 -1 28 9 235
156 348 197 475 175 64 -11 141 -50 157 -81 36 -67 -14 -124 -195 -220 -66
-35 -164 -90 -218 -123 -105 -64 -198 -106 -234 -107 -13 0 -29 10 -38 24 -14
21 -15 34 -5 87 6 34 8 85 5 113 -10 68 -51 208 -76 257 l-20 40 45 58 c181
234 591 500 919 595 133 39 247 51 349 37 109 -15 170 -35 208 -71 50 -47 36
-118 -34 -177 -45 -37 -74 -88 -86 -153 -8 -43 -19 -64 -51 -96 -22 -22 -54
-63 -72 -90 -39 -59 -83 -84 -157 -85 l-55 -1 44 -10 c97 -22 177 15 200 92 9
31 24 50 61 76 48 35 70 72 70 121 0 36 23 73 84 133 86 83 93 135 28 203 -36
38 -78 59 -187 92 -100 30 -99 39 6 54 102 14 200 -4 259 -47 l35 -25 -24 26
c-13 15 -45 37 -70 49 -67 33 -260 33 -416 0 -386 -83 -689 -248 -1043 -569
l-69 -62 -1 41 c-1 22 -14 62 -28 89 -21 37 -39 54 -81 76 -53 27 -54 29 -50
65 16 122 205 376 353 475 48 32 56 34 86 24 53 -18 135 14 182 69 33 39 33
74 1 105 -29 30 -56 31 -111 6z m71 -52 c15 -24 -6 -58 -48 -78 -52 -25 -76
-27 -84 -5 -9 23 8 45 53 71 43 25 69 29 79 12z m-1213 -37 c43 -39 34 -67
-19 -59 -48 8 -86 43 -72 68 14 28 54 23 91 -9z m-1016 -56 c176 -44 327 -112
507 -228 59 -39 107 -72 107 -73 0 -2 -30 10 -66 26 -152 69 -468 139 -624
139 -194 -1 -309 -72 -318 -198 -5 -75 12 -113 94 -207 37 -42 93 -124 125
-183 32 -59 59 -104 59 -99 0 4 -21 51 -47 104 -33 65 -68 118 -110 164 -82
89 -97 120 -98 194 0 96 50 159 149 186 54 16 206 15 281 0 75 -16 278 -81
272 -87 -2 -3 -33 0 -68 5 -261 43 -496 10 -558 -78 -49 -69 -31 -117 79 -206
49 -40 83 -76 97 -105 17 -35 22 -40 23 -22 0 40 -26 88 -89 156 -65 72 -82
118 -62 162 40 88 343 99 645 23 318 -80 660 -299 896 -575 l87 -101 -28 -83
c-15 -45 -33 -121 -39 -169 -15 -111 -27 -140 -57 -147 -44 -11 -94 4 -242 75
-80 38 -191 86 -246 105 -148 54 -174 67 -201 99 -31 37 -30 68 1 106 54 64
194 84 335 47 75 -20 234 -94 334 -155 37 -23 70 -40 73 -38 9 9 -112 88 -216
141 -156 80 -230 100 -344 93 -51 -3 -104 -9 -119 -13 -22 -5 -28 -3 -28 9 0
44 -138 140 -230 161 -14 4 4 -8 40 -26 84 -42 150 -105 150 -142 0 -16 -11
-41 -25 -58 -35 -41 -41 -74 -22 -114 22 -45 74 -77 209 -128 155 -59 277
-122 411 -212 158 -106 167 -117 167 -205 0 -99 28 -344 45 -388 8 -20 19 -88
25 -151 7 -63 16 -137 21 -164 5 -27 7 -51 5 -53 -7 -8 -53 83 -80 158 -15 43
-34 85 -41 95 -8 11 -1 -19 15 -66 l30 -85 -42 50 c-71 86 -210 219 -288 277
-63 47 -169 116 -345 222 l-30 18 25 -21 c14 -12 58 -43 98 -69 40 -26 114
-74 164 -107 168 -110 368 -324 483 -516 48 -82 106 -233 120 -314 6 -37 3
-34 -55 55 -139 212 -285 381 -453 524 -68 57 -145 130 -172 163 -87 103 -177
192 -224 222 -25 16 -129 66 -231 111 -243 107 -293 136 -384 221 -91 85 -111
121 -160 292 -20 70 -54 168 -75 217 -38 87 -121 243 -127 237 -2 -2 16 -53
40 -114 55 -140 68 -184 106 -368 32 -153 61 -233 106 -292 14 -18 23 -33 21
-33 -10 0 -113 73 -140 98 -43 40 -54 69 -61 162 -13 183 -79 384 -199 610
-141 267 -155 306 -143 404 18 140 109 240 256 283 69 20 263 10 386 -21z
m3162 -376 c31 -19 40 -42 24 -68 -6 -8 -37 -14 -88 -16 -94 -4 -185 -36 -272
-95 -38 -25 -78 -43 -113 -49 -30 -6 -56 -9 -58 -6 -9 9 26 69 64 108 57 59
110 93 191 121 90 32 204 34 252 5z m-44 -138 c-23 -20 -47 -47 -54 -60 -8
-17 -17 -21 -28 -17 -9 4 -57 10 -107 14 l-90 6 63 33 c69 36 155 60 217 61
l40 0 -41 -37z m-1464 -102 c0 -4 -11 -17 -25 -30 -15 -14 -28 -40 -31 -62 -8
-48 -38 -53 -47 -9 -4 16 -20 46 -38 65 -38 44 -29 63 34 68 39 3 107 -18 107
-32z m1363 9 c45 -12 47 -30 9 -69 -38 -38 -88 -50 -205 -50 -120 0 -170 18
-165 58 3 21 13 29 68 48 73 25 225 32 293 13z m-1301 -41 c9 -7 19 -24 23
-37 7 -23 7 -23 -16 -7 -45 31 -82 11 -82 -45 0 -39 -16 -23 -23 23 -5 28 -2
40 15 57 24 24 59 27 83 9z m-212 -30 c27 -45 25 -73 -7 -106 -16 -15 -20 -18
-10 -7 20 24 23 75 5 93 -21 21 -66 14 -84 -13 -22 -33 -10 -83 22 -95 24 -10
32 -20 15 -20 -5 0 -23 12 -40 26 -26 21 -31 33 -31 68 0 55 27 86 76 86 28 0
38 -6 54 -32z m-45 -59 c0 -15 -7 -25 -17 -27 -13 -3 -18 3 -18 21 0 13 3 27
7 31 13 12 28 -1 28 -25z m253 4 c-2 -17 -9 -28 -18 -28 -9 0 -16 11 -18 28
-3 22 1 27 18 27 17 0 21 -5 18 -27z m71 -65 c2 -66 -17 -88 -37 -43 -6 14
-18 25 -26 25 -9 0 -4 11 15 29 16 16 29 38 30 48 1 34 18 -18 18 -59z m-157
-3 c16 -14 39 -25 50 -25 32 0 58 -29 58 -65 0 -50 -18 -58 -65 -29 -68 41
-183 30 -225 -21 -12 -15 -15 -14 -26 7 -27 47 -13 78 33 78 9 0 35 18 59 40
51 46 75 50 116 15z m-232 -34 c0 -6 -5 -13 -11 -16 -6 -4 -8 -21 -5 -38 l6
-32 -17 32 c-13 26 -14 35 -3 48 14 17 30 20 30 6z m280 -111 c74 -53 130
-189 130 -319 0 -118 -35 -159 -153 -182 -101 -19 -244 23 -275 81 -24 46 5
234 50 324 29 58 67 106 92 117 37 16 120 5 156 -21z m-85 -544 c67 1 103 6
142 22 l53 22 12 -23 c8 -15 13 -70 13 -169 0 -132 -2 -149 -21 -175 -32 -44
-89 -67 -175 -71 -108 -6 -154 20 -223 123 -22 33 -26 51 -26 108 l0 69 38
-30 c58 -45 100 -64 162 -69 67 -6 158 17 185 47 l19 21 -45 -20 c-99 -45
-245 -20 -326 56 -34 32 -36 54 -12 120 l8 22 53 -27 c46 -24 63 -27 143 -26z
m-1344 -227 c121 -51 372 -176 399 -199 l25 -20 -40 16 c-22 9 -69 31 -105 49
-79 39 -173 70 -259 85 -57 10 -95 7 -60 -4 8 -3 55 -18 106 -35 103 -34 290
-124 373 -181 56 -38 130 -112 130 -129 0 -6 -33 5 -72 24 -146 67 -284 102
-447 112 -121 7 -114 -4 10 -18 177 -19 335 -68 486 -151 151 -83 364 -255
501 -406 141 -156 209 -262 226 -351 6 -33 4 -32 -79 48 -100 95 -227 182
-373 252 -184 89 -365 139 -662 184 -85 12 -139 23 -120 24 61 2 300 -29 424
-54 127 -26 163 -27 74 -2 -157 45 -281 66 -523 87 -136 12 -366 48 -378 59
-10 10 271 641 284 641 4 0 40 -14 80 -31z m1240 -180 c48 -24 153 -26 229 -3
44 13 54 13 61 2 13 -20 10 -48 -14 -117 -19 -55 -28 -67 -59 -84 -21 -10 -65
-21 -98 -24 -51 -5 -67 -2 -115 21 -41 20 -60 38 -74 64 -19 37 -41 152 -41
211 l0 31 37 -41 c20 -22 54 -49 74 -60z m1443 -4 c116 -237 175 -370 168
-377 -4 -4 -61 -12 -127 -18 -322 -29 -556 -103 -918 -287 -118 -61 -328 -193
-305 -193 3 0 45 23 94 51 293 169 621 290 929 343 154 27 136 36 269 -128
122 -150 236 -297 236 -306 0 -3 -222 -5 -492 -5 -469 0 -499 -1 -618 -23 -69
-12 -159 -31 -200 -42 -41 -10 -76 -18 -78 -16 -6 7 174 68 268 92 140 34 298
52 566 64 131 5 259 10 284 11 99 1 0 16 -145 22 -188 7 -434 -6 -589 -33
-200 -34 -463 -133 -620 -234 -32 -20 -60 -35 -63 -33 -7 7 17 89 33 115 8 12
12 27 8 33 -7 12 49 99 109 172 83 100 566 490 675 546 46 23 243 67 380 85
56 7 105 16 109 20 23 23 -239 -6 -342 -38 -27 -8 -50 -14 -52 -12 -2 1 36 23
85 48 89 47 205 88 248 88 13 0 24 5 24 10 0 23 -138 1 -248 -40 -195 -73
-574 -343 -813 -580 -89 -88 -104 -99 -92 -70 104 249 256 387 628 571 110 54
234 117 275 139 41 22 110 47 152 57 75 17 93 33 40 33 -27 1 -27 1 8 20 19
11 42 18 50 17 8 -1 37 -47 64 -102z m-1443 -235 c53 -24 117 -25 188 -4 59
17 81 14 81 -14 0 -71 -159 -145 -243 -113 -60 23 -99 88 -81 135 8 20 3 20
55 -4z m247 -164 c-17 -52 -55 -78 -121 -84 -40 -3 -66 1 -106 19 -54 23 -71
46 -71 95 l0 24 38 -24 c20 -14 49 -28 64 -31 35 -9 124 18 168 50 32 24 35
24 38 8 2 -11 -3 -36 -10 -57z m-144 -106 l51 -1 -24 -19 c-31 -26 -70 -25
-111 3 -49 33 -52 52 -5 33 21 -9 61 -16 89 -16z m116 0 c0 -18 -42 -115 -56
-131 -21 -23 -81 -31 -119 -15 -26 11 -34 22 -44 61 -7 26 -10 49 -8 51 2 2
21 -5 43 -16 49 -25 92 -15 133 29 29 31 51 40 51 21z m-1487 -7 c-13 -2 -33
-2 -45 0 -13 2 -3 4 22 4 25 0 35 -2 23 -4z m56 -60 c194 -31 356 -71 519
-129 248 -89 533 -243 657 -358 l50 -46 -68 30 c-214 93 -605 204 -842 239
-158 23 -358 27 -531 10 -184 -18 -185 -27 -2 -28 192 -1 367 -14 556 -41 137
-20 324 -61 304 -68 -6 -2 -95 4 -199 13 -103 9 -347 19 -540 22 -194 3 -353
9 -353 13 0 5 43 68 95 141 55 77 100 151 106 174 5 22 12 45 14 52 4 13 9 13
234 -24z m1311 -115 c16 6 30 8 33 5 6 -5 -40 -124 -54 -137 -5 -6 -9 -7 -9
-3 0 4 -9 39 -19 77 -20 70 -20 70 0 59 14 -7 29 -7 49 -1z m1540 -307 c63 -5
75 -9 78 -25 4 -18 -1 -19 -89 -13 -617 43 -958 23 -1244 -72 -49 -17 -91 -29
-93 -27 -5 5 142 60 224 85 93 27 222 50 341 61 100 9 647 3 783 -9z m-2605
-11 c356 -20 763 -93 898 -162 42 -21 43 -27 6 -32 -13 -2 -40 -10 -59 -18
-27 -12 -99 -17 -325 -21 -159 -3 -393 -10 -520 -16 -126 -5 -357 -12 -512
-16 -302 -6 -304 -6 -264 42 18 21 24 22 522 34 277 6 614 10 749 7 135 -3
218 -2 185 3 -33 4 -204 7 -380 8 -585 2 -995 13 -995 27 0 17 280 27 795 28
449 1 566 -8 701 -54 75 -26 81 -19 8 9 -141 54 -390 71 -1041 71 -367 0 -433
2 -433 14 0 14 39 20 195 29 28 2 -5 4 -72 5 -68 1 -123 5 -123 8 0 3 5 14 10
25 10 18 23 19 243 19 128 0 313 -5 412 -10z m2323 -31 c324 -17 346 -20 350
-46 l3 -23 -178 -1 c-98 -1 -252 -5 -343 -9 -188 -7 -166 -9 279 -19 253 -6
273 -7 258 -22 -18 -18 -45 -20 -652 -44 -198 -8 -451 -22 -563 -31 -195 -15
-279 -13 -267 6 11 18 227 73 409 105 21 3 36 8 33 11 -13 14 -353 -52 -441
-86 -42 -16 -30 -2 22 24 121 61 355 114 622 139 79 8 287 6 468 -4z m-1106
-119 c-42 -26 -56 -26 -17 0 17 11 35 20 40 20 6 0 -5 -9 -23 -20z m1651 -79
c20 -27 37 -56 37 -64 0 -35 -50 -37 -843 -37 -692 0 -778 2 -767 15 8 9 30
15 60 15 26 0 110 7 186 15 186 19 360 31 789 55 397 22 453 26 475 40 21 14
21 14 63 -39z m-1700 -9 c37 -21 43 -35 22 -56 -14 -13 -41 -16 -164 -16 -148
0 -171 5 -171 38 0 7 20 22 44 32 90 40 203 41 269 2z m-1995 -44 c10 -10 187
-14 788 -18 503 -3 775 -8 777 -15 3 -15 -1516 -19 -1565 -5 -35 10 -47 27
-31 43 9 10 17 9 31 -5z m1945 -95 c-45 -2 -122 -2 -170 0 -48 1 -11 3 82 3
94 0 133 -2 88 -3z"/>
<path d="M620 3975 c-139 -45 -188 -112 -177 -237 7 -82 49 -163 156 -303 99
-129 144 -213 263 -490 50 -117 84 -183 109 -210 20 -22 48 -66 63 -97 58
-123 163 -204 277 -213 l64 -6 -72 20 c-39 11 -89 31 -110 44 -55 35 -116 107
-148 175 -15 31 -38 72 -52 90 -33 44 -60 107 -138 322 -77 214 -102 265 -189
385 -91 124 -110 176 -111 295 0 115 14 145 89 187 51 28 52 28 234 28 170 0
181 1 140 14 -24 7 -105 15 -183 17 -129 4 -146 2 -215 -21z"/>
<path d="M1108 3903 c7 -3 16 -2 19 1 4 3 -2 6 -13 5 -11 0 -14 -3 -6 -6z"/>
<path d="M923 3649 c-40 -12 -67 -50 -59 -83 3 -13 30 -44 58 -67 67 -55 76
-67 84 -105 3 -18 14 -45 24 -62 31 -50 72 -66 195 -72 61 -4 119 -10 129 -15
13 -6 17 -5 13 2 -11 17 118 21 200 7 98 -17 187 -47 313 -106 118 -55 122
-50 9 14 -80 46 -226 100 -319 118 -55 10 -55 11 -56 48 -4 126 -158 271 -339
317 -65 16 -201 19 -252 4z m232 -24 c84 -21 195 -78 241 -123 37 -35 78 -102
69 -111 -7 -7 -108 30 -190 69 -123 59 -172 73 -275 78 -54 2 -98 9 -102 16
-18 27 -7 47 35 66 52 24 140 26 222 5z m-69 -120 c34 -8 85 -25 115 -38 l54
-24 -75 -6 c-41 -3 -91 -12 -111 -21 l-37 -15 -13 30 c-6 17 -29 42 -51 56
-21 14 -38 27 -38 29 0 9 101 2 156 -11z m312 -116 c34 -11 69 -27 77 -35 16
-16 10 -43 -13 -61 -20 -16 -270 -18 -326 -2 -39 11 -96 57 -96 78 0 50 229
62 358 20z"/>
<path d="M986 3225 c10 -16 28 -49 41 -71 13 -23 35 -53 48 -67 25 -25 91 -47
139 -47 41 0 30 17 -15 24 -59 9 -93 30 -138 83 -22 27 -52 62 -66 78 l-27 30
18 -30z"/>
<path d="M1401 3165 c29 -9 59 -29 78 -50 19 -22 31 -30 31 -21 0 9 -13 30
-28 47 -22 25 -37 32 -77 35 l-50 4 46 -15z"/>
<path d="M961 3069 c-1 -3 17 -53 39 -112 22 -58 40 -112 40 -120 0 -38 186
-289 227 -305 15 -6 84 -20 153 -31 144 -23 236 -50 335 -96 129 -62 268 -162
358 -259 66 -70 214 -272 221 -301 4 -15 9 -25 12 -23 16 17 -91 210 -181 328
-172 223 -418 347 -776 390 -135 16 -139 18 -233 143 -66 88 -90 129 -111 191
-26 75 -83 207 -84 195z"/>
<path d="M1269 2891 c-47 -47 -51 -88 -15 -142 30 -44 69 -63 171 -84 236 -48
452 -162 699 -369 28 -22 46 -34 40 -25 -24 41 -263 220 -390 292 -110 63
-219 105 -349 138 -95 24 -131 46 -151 95 -16 38 -7 74 28 112 37 38 8 24 -33
-17z"/>
<path d="M2458 2778 c16 -16 212 -24 262 -10 29 8 22 9 -45 8 -44 -1 -114 3
-155 7 -62 7 -73 6 -62 -5z"/>
<path d="M1240 1859 c392 -36 650 -148 980 -425 119 -100 92 -60 -43 63 -265
242 -601 376 -930 372 l-102 -2 95 -8z"/>
<path d="M1134 1709 c439 -25 764 -127 1081 -338 127 -85 130 -87 121 -73 -21
35 -222 170 -337 227 -280 137 -548 197 -873 194 l-131 -2 139 -8z"/>
<path d="M3849 1829 c-173 -25 -383 -96 -589 -198 -123 -62 -270 -147 -270
-157 0 -2 54 23 120 56 270 135 506 223 738 275 64 15 119 29 121 31 6 6 -57
3 -120 -7z"/>
<path d="M3745 1481 c88 -12 289 -22 240 -11 -22 5 -98 11 -170 14 -90 3 -112
2 -70 -3z"/>
<path d="M3545 1403 c-144 -13 -452 -92 -614 -159 -94 -39 -199 -98 -246 -139
l-30 -27 40 23 c205 114 304 154 519 209 216 55 337 71 611 78 156 4 224 8
195 13 -45 7 -399 9 -475 2z"/>
<path d="M2670 1160 c-6 -11 -8 -20 -6 -20 3 0 10 9 16 20 6 11 8 20 6 20 -3
0 -10 -9 -16 -20z"/>
<path d="M1155 1410 c-54 -4 3 -7 174 -8 140 -1 252 0 250 2 -8 7 -347 13
-424 6z"/>
<path d="M3125 925 l-70 -13 75 5 c41 3 98 9 125 13 l50 8 -55 0 c-30 0 -86
-6 -125 -13z"/>
<path d="M3008 903 c6 -2 18 -2 25 0 6 3 1 5 -13 5 -14 0 -19 -2 -12 -5z"/>
<path d="M4351 3173 c-47 -174 -106 -472 -99 -494 7 -21 46 117 82 291 35 169
52 280 43 280 -3 0 -14 -35 -26 -77z"/>
<path d="M3810 3206 c-8 -8 -35 -25 -60 -39 -57 -32 -84 -80 -74 -133 l7 -38
13 49 c12 49 59 105 87 105 7 0 21 16 30 35 18 39 18 42 -3 21z"/>
<path d="M3870 2924 c0 -5 7 -18 15 -28 8 -11 15 -37 15 -58 0 -44 -24 -74
-67 -84 -92 -21 -147 -37 -188 -54 -61 -26 -172 -92 -210 -125 -28 -24 -26
-23 21 5 91 53 185 91 303 121 96 24 121 35 144 59 31 34 35 75 13 119 -15 29
-46 60 -46 45z"/>
<path d="M3937 2422 c-187 -96 -340 -182 -334 -189 3 -2 83 38 179 90 95 52
208 110 251 130 72 33 91 47 67 47 -6 0 -79 -35 -163 -78z"/>
</g>
</svg>